<svg id="Layer_1" data-name="Layer 1" xmlns="http://www.w3.org/2000/svg" viewBox="0 0 494.83 494.77"><defs><style>.cls-1{fill:#fff;}</style></defs><title>icon-time</title><path class="cls-1" d="M250.29,2.1C113.87,2.1,2.88,113.09,2.88,249.45s111,247.42,247.42,247.42,247.42-111,247.42-247.42S386.71,2.1,250.29,2.1Zm0,461.51c-118.12,0-214.16-96-214.16-214.16s96-214.16,214.16-214.16,214.16,96,214.16,214.16S368.41,463.61,250.29,463.61Z" transform="translate(-2.88 -2.1)"/><path class="cls-1" d="M327.4,364.67l23.47-23.41-84-89.48V130.32H233.7V248.19a42.21,42.21,0,0,0,12.37,29.91Z" transform="translate(-2.88 -2.1)"/></svg>