<svg id="Layer_1" data-name="Layer 1" xmlns="http://www.w3.org/2000/svg" viewBox="0 0 477.54 477.37"><defs><style>.cls-1{fill:#fff;}</style></defs><title>icon-close</title><path class="cls-1" d="M484.16,16.12a16.58,16.58,0,0,0-11.82-4.91h0a16.79,16.79,0,0,0-11.87,4.91l-444,444a16.8,16.8,0,0,0,0,23.75,17.27,17.27,0,0,0,23.77,0l443.94-444a16.8,16.8,0,0,0,0-23.75h0Z" transform="translate(-11.56 -11.2)"/><path class="cls-1" d="M484.19,460.11v0L40.25,16.12A16.8,16.8,0,0,0,11.56,28a16.58,16.58,0,0,0,4.91,11.82l444,444c6.32,6.32,17.45,6.32,23.72,0A16.74,16.74,0,0,0,484.19,460.11Z" transform="translate(-11.56 -11.2)"/></svg>