<svg id="Layer_1" data-name="Layer 1" xmlns="http://www.w3.org/2000/svg" viewBox="0 0 476.09 476.1"><defs><style>.cls-1{fill:#fff;}</style></defs><title>icon-search</title><path class="cls-1" d="M212.36,12.14c-110.06,0-199.59,89.53-199.59,199.56S102.3,411.32,212.36,411.32a200,200,0,0,0,126.43-45.14l4.66-3.91,4.3,4.36L465.41,484.21a13.7,13.7,0,0,0,19.42,0,13.6,13.6,0,0,0,0-19.28l-1.05-1.08L362.9,343l3.83-4.72A200,200,0,0,0,412,211.71C412,101.67,322.42,12.14,212.36,12.14Zm0,371.49c-94.83,0-172-77.13-172-171.93s77.16-172,172-172,172,77.16,172,172S307.21,383.63,212.36,383.63Z" transform="translate(-12.77 -12.14)"/></svg>